<svg xmlns="http://www.w3.org/2000/svg" width="147.5" height="187.297" viewBox="0 0 147.5 187.297"><defs><style>.a,.c{fill:#c7c7c7;}.b,.c{stroke:none;}</style></defs><g class="a"><path class="b" d="M 73.749755859375 186.7720947265625 L 0.5585145354270935 163.2272033691406 C 0.7218920588493347 162.2436676025391 1.240792870521545 159.5548400878906 2.51516056060791 155.9535217285156 C 3.461208343505859 153.280029296875 4.63247013092041 150.6338500976563 5.99639892578125 148.0884704589844 C 7.700279712677002 144.9087371826172 9.711470603942871 141.8780517578125 11.97413635253906 139.0806121826172 C 17.73194694519043 131.9620208740234 25.13601684570313 126.2895202636719 33.98070907592773 122.2206878662109 C 39.23787307739258 119.8022384643555 45.06996917724609 117.9302368164063 51.31501770019531 116.6566696166992 C 58.19220733642578 115.2542114257813 65.74032592773438 114.543098449707 73.749755859375 114.543098449707 C 81.75918579101563 114.543098449707 89.30730438232422 115.2542114257813 96.18449401855469 116.6566696166992 C 102.4295425415039 117.9302368164063 108.2616348266602 119.8022384643555 113.5188064575195 122.2206878662109 C 122.3634948730469 126.2895202636719 129.7675628662109 131.9620208740234 135.5253753662109 139.0806121826172 C 137.7880401611328 141.8780517578125 139.7992248535156 144.9087371826172 141.5031127929688 148.0884704589844 C 142.8670349121094 150.6338500976563 144.0382995605469 153.280029296875 144.9843444824219 155.9535217285156 C 146.2587127685547 159.5548400878906 146.7776031494141 162.2435760498047 146.9409942626953 163.2272033691406 L 73.749755859375 186.7720947265625 Z M 73.749755859375 110.2129516601563 C 66.33568572998047 110.2129516601563 59.14370727539063 108.7625961303711 52.37354278564453 105.9021911621094 C 49.11959075927734 104.5273818969727 45.98113632202148 102.8257141113281 43.04530334472656 100.8444747924805 C 40.13727951049805 98.88195037841797 37.40268325805664 96.62814331054688 34.9174690246582 94.14562225341797 C 32.43228149414063 91.66311645507813 30.17604064941406 88.93147277832031 28.21142196655273 86.02661895751953 C 26.22806549072266 83.09402465820313 24.52461242675781 79.95897674560547 23.1483268737793 76.70859527587891 C 20.28489875793457 69.94595336914063 18.83301734924316 62.76192855834961 18.83301734924316 55.35609436035156 C 18.83301734924316 47.9504508972168 20.28489875793457 40.76657104492188 23.1483268737793 34.00402450561523 C 24.52458953857422 30.75369071960449 26.22806549072266 27.61871337890625 28.21142196655273 24.68616676330566 C 30.17604064941406 21.78130912780762 32.43228149414063 19.04971313476563 34.9174690246582 16.56723785400391 C 37.40268325805664 14.08473777770996 40.13727951049805 11.83092784881592 43.04530334472656 9.868452072143555 C 45.98113632202148 7.887214183807373 49.11959075927734 6.185571193695068 52.37354278564453 4.810761451721191 C 59.14370727539063 1.950356841087341 66.33570861816406 0.4999997019767761 73.749755859375 0.4999997019767761 C 81.16380310058594 0.4999997019767761 88.35580444335938 1.950356841087341 95.12596893310547 4.810761451721191 C 98.37992095947266 6.185571193695068 101.5184020996094 7.887214183807373 104.4542083740234 9.868452072143555 C 107.3622283935547 11.83092784881592 110.0968475341797 14.08473777770996 112.5820388793945 16.56723785400391 C 115.067253112793 19.04971313476563 117.3234939575195 21.78130912780762 119.2880859375 24.68616676330566 C 121.2714462280273 27.61871337890625 122.9749221801758 30.75369071960449 124.3512115478516 34.00402450561523 C 127.2146377563477 40.76657104492188 128.6665191650391 47.9504508972168 128.6665191650391 55.35609436035156 C 128.6665191650391 62.76192855834961 127.2146377563477 69.94595336914063 124.3512115478516 76.70859527587891 C 122.9749221801758 79.95897674560547 121.2714462280273 83.09402465820313 119.2880859375 86.02661895751953 C 117.3234939575195 88.93147277832031 115.067253112793 91.66311645507813 112.5820388793945 94.14562225341797 C 110.0968475341797 96.62814331054688 107.3622283935547 98.88195037841797 104.4542083740234 100.8444747924805 C 101.5184020996094 102.8257141113281 98.37992095947266 104.5273818969727 95.12596893310547 105.9021911621094 C 88.35582733154297 108.7625961303711 81.16382598876953 110.2129516601563 73.749755859375 110.2129516601563 Z"/><path class="c" d="M 73.749755859375 186.2468719482422 L 146.3731536865234 162.8846282958984 C 146.1515350341797 161.6831665039063 145.6172485351563 159.2317810058594 144.4964904785156 156.0737609863281 C 143.5556793212891 153.4227905273438 142.3915405273438 150.79931640625 141.0363922119141 148.2762145996094 C 139.3445892333984 145.126220703125 137.3483581542969 142.1242828369141 135.1031799316406 139.3537902832031 C 129.3916168212891 132.3057861328125 122.0479202270508 126.6890029907227 113.2761154174805 122.6594314575195 C 108.0565643310547 120.2616882324219 102.2650146484375 118.4053802490234 96.06232452392578 117.1420440673828 C 89.22409057617188 115.7492828369141 81.71706390380859 115.043098449707 73.749755859375 115.043098449707 C 65.78244781494141 115.043098449707 58.27542114257813 115.7492828369141 51.43718338012695 117.1420440673828 C 45.23449325561523 118.4053802490234 39.44294738769531 120.2616882324219 34.2234001159668 122.6594314575195 C 25.45158958435059 126.6890029907227 18.1078987121582 132.3057861328125 12.39632701873779 139.3537902832031 C 10.15116024017334 142.1242828369141 8.154922485351563 145.126220703125 6.463112831115723 148.2762145996094 C 5.107970237731934 150.79931640625 3.943827390670776 153.4227905273438 3.003017663955688 156.0737609863281 C 1.882265090942383 159.2317810058594 1.347924828529358 161.6834259033203 1.12633740901947 162.8846282958984 L 73.749755859375 186.2468719482422 M 73.749755859375 109.7129516601563 C 81.09661102294922 109.7129516601563 88.22313690185547 108.2758560180664 94.93137359619141 105.4415969848633 C 98.15558624267578 104.0793533325195 101.2654495239258 102.3932113647461 104.1745147705078 100.4300231933594 C 107.0561828613281 98.48530578613281 109.7659912109375 96.25193023681641 112.2286834716797 93.79187774658203 C 114.6913757324219 91.33185577392578 116.9271392822266 88.625 118.8739242553711 85.74649810791016 C 120.8391876220703 82.84066772460938 122.5270919799805 79.73428344726563 123.8907775878906 76.51364135742188 C 126.7279434204102 69.81299591064453 128.1665191650391 62.69457244873047 128.1665191650391 55.35609436035156 C 128.1665191650391 48.01778411865234 126.7279434204102 40.8995246887207 123.8907775878906 34.198974609375 C 122.5270919799805 30.9784049987793 120.8391876220703 27.8720703125 118.8739242553711 24.96626091003418 C 116.9271392822266 22.0877857208252 114.6913757324219 19.3809757232666 112.2286834716797 16.92097663879395 C 109.7659912109375 14.46095180511475 107.0561828613281 12.22759532928467 104.1745147705078 10.28290462493896 C 101.2654495239258 8.319713592529297 98.15558624267578 6.633571147918701 94.93137359619141 5.27133321762085 C 88.22311401367188 2.437094926834106 81.09658813476563 0.9999997019767761 73.749755859375 0.9999997019767761 C 66.40292358398438 0.9999997019767761 59.27639770507813 2.437094926834106 52.56813812255859 5.27133321762085 C 49.34392166137695 6.633571147918701 46.23406600952148 8.319713592529297 43.32501602172852 10.28290462493896 C 40.44335174560547 12.22759532928467 37.73351669311523 14.46095180511475 35.27082824707031 16.92097663879395 C 32.80815887451172 19.3809757232666 30.57237434387207 22.0877857208252 28.62558937072754 24.96626091003418 C 26.66035079956055 27.8720703125 24.97242164611816 30.9784049987793 23.60875511169434 34.198974609375 C 20.7715892791748 40.8995246887207 19.33301734924316 48.01778411865234 19.33301734924316 55.35609436035156 C 19.33301734924316 62.69457244873047 20.7715892791748 69.81299591064453 23.60875511169434 76.51364135742188 C 24.97242164611816 79.73428344726563 26.66035079956055 82.84066772460938 28.62561225891113 85.74649810791016 C 30.57237434387207 88.625 32.80815887451172 91.33185577392578 35.27082824707031 93.79187774658203 C 37.73351669311523 96.25193023681641 40.44335174560547 98.48530578613281 43.32501602172852 100.4300231933594 C 46.23406600952148 102.3932113647461 49.34392166137695 104.0793533325195 52.56813812255859 105.4415969848633 C 59.27637481689453 108.2758560180664 66.40290069580078 109.7129516601563 73.749755859375 109.7129516601563 M 73.749755859375 187.2973327636719 L -6.045386726327706e-06 163.5727691650391 C -6.045386726327706e-06 163.5727691650391 6.221184253692627 114.043098449707 73.749755859375 114.043098449707 C 141.2783203125 114.043098449707 147.49951171875 163.5727691650391 147.49951171875 163.5727691650391 L 73.749755859375 187.2973327636719 Z M 73.749755859375 110.7129516601563 C 43.14368438720703 110.7129516601563 18.33301734924316 85.92902374267578 18.33301734924316 55.35609436035156 C 18.33301734924316 24.78392791748047 43.14368438720703 -2.848307190106425e-07 73.749755859375 -2.848307190106425e-07 C 104.355827331543 -2.848307190106425e-07 129.1665191650391 24.78392791748047 129.1665191650391 55.35609436035156 C 129.1665191650391 85.92902374267578 104.355827331543 110.7129516601563 73.749755859375 110.7129516601563 Z"/></g></svg>