<svg xmlns="http://www.w3.org/2000/svg" width="270" height="270" viewBox="0 0 270 270"><defs><style>.a{fill:none;}.b,.c{stroke:none;}.c{fill:#df2c2c;}</style></defs><g class="a"><path class="b" d="M135,0A135,135,0,1,1,0,135,135,135,0,0,1,135,0Z"/><path class="c" d="M 135 20 C 71.58879089355469 20 20 71.58879089355469 20 135 C 20 198.4112091064453 71.58879089355469 250 135 250 C 198.4112091064453 250 250 198.4112091064453 250 135 C 250 71.58879089355469 198.4112091064453 20 135 20 M 135 0 C 209.5584259033203 0 270 60.44157409667969 270 135 C 270 209.5584259033203 209.5584259033203 270 135 270 C 60.44157409667969 270 0 209.5584259033203 0 135 C 0 60.44157409667969 60.44157409667969 0 135 0 Z"/></g></svg>