<svg xmlns="http://www.w3.org/2000/svg" width="225" height="224.757" viewBox="0 0 225 224.757"><defs><style>.a{fill:none;}.b,.c{stroke:none;}.c{fill:#2cdf5c;}</style></defs><g class="a"><path class="b" d="M112.5,0A112.378,112.378,0,1,1,0,112.378,112.439,112.439,0,0,1,112.5,0Z"/><path class="c" d="M 112.5 20 C 61.49534606933594 20 20 61.4407958984375 20 112.3783950805664 C 20 163.3159942626953 61.49534606933594 204.7567901611328 112.5 204.7567901611328 C 163.5046539306641 204.7567901611328 205 163.3159942626953 205 112.3783950805664 C 205 61.4407958984375 163.5046539306641 20 112.5 20 M 112.5 0 C 174.6320495605469 0 225 50.31349182128906 225 112.3783950805664 C 225 174.4432373046875 174.6320495605469 224.7567901611328 112.5 224.7567901611328 C 50.36795043945313 224.7567901611328 0 174.4432373046875 0 112.3783950805664 C 0 50.31349182128906 50.36795043945313 0 112.5 0 Z"/></g></svg>