<svg xmlns="http://www.w3.org/2000/svg" width="300" height="370" viewBox="0 0 300 370"><defs><style>.a{fill:#f0f0f0;}</style></defs><path class="a" d="M-1503,375h-240a29.81,29.81,0,0,1-11.677-2.358,29.9,29.9,0,0,1-9.536-6.429,29.9,29.9,0,0,1-6.429-9.536A29.815,29.815,0,0,1-1773,345V35a29.815,29.815,0,0,1,2.358-11.678,29.9,29.9,0,0,1,6.429-9.536,29.9,29.9,0,0,1,9.536-6.429A29.812,29.812,0,0,1-1743,5h240a29.812,29.812,0,0,1,11.677,2.357,29.9,29.9,0,0,1,9.536,6.429,29.9,29.9,0,0,1,6.429,9.536A29.814,29.814,0,0,1-1473,35V345a29.815,29.815,0,0,1-2.357,11.678,29.9,29.9,0,0,1-6.429,9.536,29.9,29.9,0,0,1-9.536,6.429A29.812,29.812,0,0,1-1503,375ZM-1623,35a125.142,125.142,0,0,0-125,125,125.142,125.142,0,0,0,125,125,125.142,125.142,0,0,0,125-125A125.142,125.142,0,0,0-1623,35Z" transform="translate(1773 -5)"/></svg>